# xmcd
#
# Track frame offsets: 
#        150
#        12337
#        24237
#        36150
#        47712
#        61147
#        73175
#        82512
#        94200
#        104610
#
# Disc length: 1750 seconds
#
# Revision: 2
# Processed by: cddbd v1.5.2PL0 Copyright (c) Steve Scherf et al.
# Submitted via: ExactAudioCopyFreeDBPlugin 1.0
#
DISCID=7606d40a
DTITLE=Bobby 'Blue' Bland - Soul Legend
DYEAR=1996
DGENRE=Blues
TTITLE0=Cry, Cry, Cry
TTITLE1=Little Boy Blue
TTITLE2=That's The Way Love Is
TTITLE3=Call On Me
TTITLE4=Farther Up The Road
TTITLE5=Ain't Nothing You Can Do
TTITLE6=Lead Me On
TTITLE7=I'm Not Ashamed
TTITLE8=I'll Take Care Of You
TTITLE9=Let The Good Times Roll
EXTD=
EXTT0=
EXTT1=
EXTT2=
EXTT3=
EXTT4=
EXTT5=
EXTT6=
EXTT7=
EXTT8=
EXTT9=
PLAYORDER=
